<svg id="Layer_1" data-name="Layer 1" xmlns="http://www.w3.org/2000/svg" viewBox="0 0 148.01 30.98"><title>Charme_logo</title><path d="M24.57,27a.48.48,0,0,0-.22,0,1.21,1.21,0,0,0-.2.14,14.19,14.19,0,0,1-1.79,1.43,10.76,10.76,0,0,1-2,1,11.22,11.22,0,0,1-2.3.63,17.45,17.45,0,0,1-2.85.21,12.12,12.12,0,0,1-4.73-.92A10.83,10.83,0,0,1,6.75,27a12.36,12.36,0,0,1-2.51-4.2,16.54,16.54,0,0,1-.9-5.65,15.92,15.92,0,0,1,.91-5.55A12.29,12.29,0,0,1,6.81,7.35a11.32,11.32,0,0,1,3.91-2.68,13.08,13.08,0,0,1,5-.93A13.89,13.89,0,0,1,18.34,4a13,13,0,0,1,2,.54,9.13,9.13,0,0,1,1.53.72c.43.26.79.5,1.09.72l.75.54a.89.89,0,0,0,.48.23.59.59,0,0,0,.53-.26l.65-.94a16.83,16.83,0,0,0-2-1.56,11.71,11.71,0,0,0-2.2-1.13,14.4,14.4,0,0,0-2.51-.7,17,17,0,0,0-3-.24A15.34,15.34,0,0,0,9.79,3,13.2,13.2,0,0,0,5.18,6.11a14.13,14.13,0,0,0-3,4.81,17.3,17.3,0,0,0-1.06,6.19,18.14,18.14,0,0,0,1,6.28A14.32,14.32,0,0,0,5,28.2a12.67,12.67,0,0,0,4.42,3.08,14.54,14.54,0,0,0,5.67,1.08,17.85,17.85,0,0,0,3.4-.3,14.53,14.53,0,0,0,2.84-.87,12.39,12.39,0,0,0,2.39-1.35,13.63,13.63,0,0,0,2-1.78l-.84-.9A.49.49,0,0,0,24.57,27ZM46.24,12.86a5.53,5.53,0,0,0-2.18-1.58,7.74,7.74,0,0,0-3-.55,8.24,8.24,0,0,0-4.17,1.06,11.65,11.65,0,0,0-3.32,2.86V1.38h-2V32h2V16.31a11.28,11.28,0,0,1,3.16-2.92,7.27,7.27,0,0,1,3.83-1.06A5,5,0,0,1,44.64,14,7.19,7.19,0,0,1,46,18.63V32h2V18.63a11.14,11.14,0,0,0-.45-3.29A6.89,6.89,0,0,0,46.24,12.86Zm20.54-.08a5.38,5.38,0,0,0-2.09-1.53,7.42,7.42,0,0,0-2.94-.54,9.68,9.68,0,0,0-4.11.84A12.23,12.23,0,0,0,54.19,14l.36.61a.68.68,0,0,0,.63.38A1.28,1.28,0,0,0,56,14.6a10.85,10.85,0,0,1,1.2-.92,8.86,8.86,0,0,1,1.8-.93,7,7,0,0,1,2.58-.42,4.46,4.46,0,0,1,3.71,1.57,7.07,7.07,0,0,1,1.25,4.48v2.19a35.07,35.07,0,0,0-6.09.59,15.56,15.56,0,0,0-4.15,1.34,6.33,6.33,0,0,0-2.36,2A4.33,4.33,0,0,0,53.14,27a5.88,5.88,0,0,0,.47,2.45,4.89,4.89,0,0,0,1.26,1.68,5.3,5.3,0,0,0,1.78,1,7,7,0,0,0,2.09.31,10.74,10.74,0,0,0,2.35-.24,8.62,8.62,0,0,0,2-.71,10.25,10.25,0,0,0,1.78-1.13,21.23,21.23,0,0,0,1.71-1.52l.3,2.67a.72.72,0,0,0,.78.59h.8V18.38A11.23,11.23,0,0,0,68,15.2,6.72,6.72,0,0,0,66.78,12.78ZM66.5,27.37c-.49.51-1,1-1.49,1.41a9.49,9.49,0,0,1-1.63,1.13,8.5,8.5,0,0,1-1.9.73,8.7,8.7,0,0,1-2.24.27,5.54,5.54,0,0,1-1.58-.23A3.71,3.71,0,0,1,56.34,30a3.61,3.61,0,0,1-.92-1.26,4.46,4.46,0,0,1-.34-1.83,3.24,3.24,0,0,1,.66-2,5.22,5.22,0,0,1,2.06-1.5,14.59,14.59,0,0,1,3.56-1,36.93,36.93,0,0,1,5.14-.46Zm17-16.66a6.14,6.14,0,0,0-4.14,1.44,9.94,9.94,0,0,0-2.7,4l-.16-4.42a.81.81,0,0,0-.18-.51.81.81,0,0,0-.52-.14h-1V32h2V18.4a10.45,10.45,0,0,1,2.47-4.26,5.4,5.4,0,0,1,3.9-1.47,7.92,7.92,0,0,1,1.16.08,7.44,7.44,0,0,1,.85.19c.23.07.43.13.58.19a1,1,0,0,0,.36.08.38.38,0,0,0,.42-.33l.27-1.39a6.13,6.13,0,0,0-1.51-.58A7,7,0,0,0,83.52,10.71Zm33.32,2.06a5.52,5.52,0,0,0-2.11-1.52,7.11,7.11,0,0,0-2.79-.52,7.73,7.73,0,0,0-2.14.3,6.83,6.83,0,0,0-1.92.93,6.65,6.65,0,0,0-1.56,1.57,7.1,7.1,0,0,0-1.06,2.25,7,7,0,0,0-1.86-3.71,5,5,0,0,0-3.66-1.34,6.16,6.16,0,0,0-1.88.28,6.83,6.83,0,0,0-1.68.8,9.08,9.08,0,0,0-1.49,1.24,12.88,12.88,0,0,0-1.3,1.58l-.19-3a.57.57,0,0,0-.63-.52h-1.1V32h2V16.18a9.77,9.77,0,0,1,2.59-2.83,5.39,5.39,0,0,1,3.16-1A4.17,4.17,0,0,1,102.77,14,7.63,7.63,0,0,1,104,18.63V32h2V18.63a7.68,7.68,0,0,1,.45-2.74,5.88,5.88,0,0,1,1.22-2,5.21,5.21,0,0,1,1.77-1.19,5.56,5.56,0,0,1,2.1-.4,4.62,4.62,0,0,1,3.78,1.61,7.2,7.2,0,0,1,1.33,4.69V32h2V18.63a11.15,11.15,0,0,0-.47-3.37A6.82,6.82,0,0,0,116.84,12.77Zm21.88.35a7.44,7.44,0,0,0-2.61-1.78,8.54,8.54,0,0,0-3.27-.61,9.73,9.73,0,0,0-4,.78,8.5,8.5,0,0,0-3,2.16A9.65,9.65,0,0,0,124,17a13.19,13.19,0,0,0-.64,4.16,15,15,0,0,0,.69,4.75,10,10,0,0,0,2,3.51,8.23,8.23,0,0,0,3,2.18,9.93,9.93,0,0,0,3.92.75,12.37,12.37,0,0,0,2.34-.23,15.18,15.18,0,0,0,2.19-.62,9.72,9.72,0,0,0,1.85-.94,5.83,5.83,0,0,0,1.34-1.18l-.55-.68a.49.49,0,0,0-.42-.21,1.41,1.41,0,0,0-.67.35,11.17,11.17,0,0,1-1.26.78,9.76,9.76,0,0,1-1.94.78,9.65,9.65,0,0,1-2.74.35,8.22,8.22,0,0,1-3.2-.61,6.52,6.52,0,0,1-2.44-1.83,8.35,8.35,0,0,1-1.55-3,14,14,0,0,1-.55-4.15v-.4H140.5a.51.51,0,0,0,.43-.17,1,1,0,0,0,.14-.63,11.21,11.21,0,0,0-.63-3.91A8.1,8.1,0,0,0,138.72,13.12Zm-13.25,6.31a10.6,10.6,0,0,1,.77-3,7.62,7.62,0,0,1,1.51-2.28A6.52,6.52,0,0,1,130,12.73a7.77,7.77,0,0,1,2.9-.51,6.62,6.62,0,0,1,2.6.5,5.57,5.57,0,0,1,2,1.42,6.32,6.32,0,0,1,1.3,2.27,9.12,9.12,0,0,1,.47,3ZM149,29.64a2.42,2.42,0,0,0-.42-.62,2.31,2.31,0,0,0-.63-.42,1.9,1.9,0,0,0-.75-.16,1.93,1.93,0,0,0-.77.16,2.21,2.21,0,0,0-.61.42,2,2,0,0,0-.56,1.38,1.94,1.94,0,0,0,2.69,1.79,1.91,1.91,0,0,0,.63-.41,2.21,2.21,0,0,0,.42-.61,1.92,1.92,0,0,0,.15-.77A2,2,0,0,0,149,29.64Z" transform="translate(-1.13 -1.38)"/></svg>